ply
format ascii 1.0
comment generated by tools/simulate_calibration_first_replay.py
comment source no-bg rect+round estimate 29.3x44.6mm round=19.4mm q=0.50
element vertex 720
property float x
property float y
property float z
end_header
25.9167 10.9101 36.4562
25.9167 10.9101 41.8127
25.9167 10.9101 47.1693
25.9167 10.9101 52.5259
25.9167 10.9101 57.8824
25.9167 10.9101 63.2390
25.9167 10.9101 68.5956
25.9167 10.9101 73.9521
25.9167 10.9101 79.3087
23.9878 11.1128 36.4562
23.9878 11.1128 41.8127
23.9878 11.1128 47.1693
23.9878 11.1128 52.5259
23.9878 11.1128 57.8824
23.9878 11.1128 63.2390
23.9878 11.1128 68.5956
23.9878 11.1128 73.9521
23.9878 11.1128 79.3087
22.0588 11.3156 36.4562
22.0588 11.3156 41.8127
22.0588 11.3156 47.1693
22.0588 11.3156 52.5259
22.0588 11.3156 57.8824
22.0588 11.3156 63.2390
22.0588 11.3156 68.5956
22.0588 11.3156 73.9521
22.0588 11.3156 79.3087
20.1299 11.5183 36.4562
20.1299 11.5183 41.8127
20.1299 11.5183 47.1693
20.1299 11.5183 52.5259
20.1299 11.5183 57.8824
20.1299 11.5183 63.2390
20.1299 11.5183 68.5956
20.1299 11.5183 73.9521
20.1299 11.5183 79.3087
18.2009 11.7210 36.4562
18.2009 11.7210 41.8127
18.2009 11.7210 47.1693
18.2009 11.7210 52.5259
18.2009 11.7210 57.8824
18.2009 11.7210 63.2390
18.2009 11.7210 68.5956
18.2009 11.7210 73.9521
18.2009 11.7210 79.3087
16.2720 11.9238 36.4562
16.2720 11.9238 41.8127
16.2720 11.9238 47.1693
16.2720 11.9238 52.5259
16.2720 11.9238 57.8824
16.2720 11.9238 63.2390
16.2720 11.9238 68.5956
16.2720 11.9238 73.9521
16.2720 11.9238 79.3087
14.3430 12.1265 36.4562
14.3430 12.1265 41.8127
14.3430 12.1265 47.1693
14.3430 12.1265 52.5259
14.3430 12.1265 57.8824
14.3430 12.1265 63.2390
14.3430 12.1265 68.5956
14.3430 12.1265 73.9521
14.3430 12.1265 79.3087
12.4141 12.3293 36.4562
12.4141 12.3293 41.8127
12.4141 12.3293 47.1693
12.4141 12.3293 52.5259
12.4141 12.3293 57.8824
12.4141 12.3293 63.2390
12.4141 12.3293 68.5956
12.4141 12.3293 73.9521
12.4141 12.3293 79.3087
10.4851 12.5320 36.4562
10.4851 12.5320 41.8127
10.4851 12.5320 47.1693
10.4851 12.5320 52.5259
10.4851 12.5320 57.8824
10.4851 12.5320 63.2390
10.4851 12.5320 68.5956
10.4851 12.5320 73.9521
10.4851 12.5320 79.3087
8.5562 12.7347 36.4562
8.5562 12.7347 41.8127
8.5562 12.7347 47.1693
8.5562 12.7347 52.5259
8.5562 12.7347 57.8824
8.5562 12.7347 63.2390
8.5562 12.7347 68.5956
8.5562 12.7347 73.9521
8.5562 12.7347 79.3087
6.6272 12.9375 36.4562
6.6272 12.9375 41.8127
6.6272 12.9375 47.1693
6.6272 12.9375 52.5259
6.6272 12.9375 57.8824
6.6272 12.9375 63.2390
6.6272 12.9375 68.5956
6.6272 12.9375 73.9521
6.6272 12.9375 79.3087
4.6983 13.1402 36.4562
4.6983 13.1402 41.8127
4.6983 13.1402 47.1693
4.6983 13.1402 52.5259
4.6983 13.1402 57.8824
4.6983 13.1402 63.2390
4.6983 13.1402 68.5956
4.6983 13.1402 73.9521
4.6983 13.1402 79.3087
2.7693 13.3430 36.4562
2.7693 13.3430 41.8127
2.7693 13.3430 47.1693
2.7693 13.3430 52.5259
2.7693 13.3430 57.8824
2.7693 13.3430 63.2390
2.7693 13.3430 68.5956
2.7693 13.3430 73.9521
2.7693 13.3430 79.3087
0.8404 13.5457 36.4562
0.8404 13.5457 41.8127
0.8404 13.5457 47.1693
0.8404 13.5457 52.5259
0.8404 13.5457 57.8824
0.8404 13.5457 63.2390
0.8404 13.5457 68.5956
0.8404 13.5457 73.9521
0.8404 13.5457 79.3087
-1.0886 13.7485 36.4562
-1.0886 13.7485 41.8127
-1.0886 13.7485 47.1693
-1.0886 13.7485 52.5259
-1.0886 13.7485 57.8824
-1.0886 13.7485 63.2390
-1.0886 13.7485 68.5956
-1.0886 13.7485 73.9521
-1.0886 13.7485 79.3087
-3.0175 13.9512 36.4562
-3.0175 13.9512 41.8127
-3.0175 13.9512 47.1693
-3.0175 13.9512 52.5259
-3.0175 13.9512 57.8824
-3.0175 13.9512 63.2390
-3.0175 13.9512 68.5956
-3.0175 13.9512 73.9521
-3.0175 13.9512 79.3087
-4.9465 14.1539 36.4562
-4.9465 14.1539 41.8127
-4.9465 14.1539 47.1693
-4.9465 14.1539 52.5259
-4.9465 14.1539 57.8824
-4.9465 14.1539 63.2390
-4.9465 14.1539 68.5956
-4.9465 14.1539 73.9521
-4.9465 14.1539 79.3087
-6.8754 14.3567 36.4562
-6.8754 14.3567 41.8127
-6.8754 14.3567 47.1693
-6.8754 14.3567 52.5259
-6.8754 14.3567 57.8824
-6.8754 14.3567 63.2390
-6.8754 14.3567 68.5956
-6.8754 14.3567 73.9521
-6.8754 14.3567 79.3087
-8.8043 14.5594 36.4562
-8.8043 14.5594 41.8127
-8.8043 14.5594 47.1693
-8.8043 14.5594 52.5259
-8.8043 14.5594 57.8824
-8.8043 14.5594 63.2390
-8.8043 14.5594 68.5956
-8.8043 14.5594 73.9521
-8.8043 14.5594 79.3087
-10.7333 14.7622 36.4562
-10.7333 14.7622 41.8127
-10.7333 14.7622 47.1693
-10.7333 14.7622 52.5259
-10.7333 14.7622 57.8824
-10.7333 14.7622 63.2390
-10.7333 14.7622 68.5956
-10.7333 14.7622 73.9521
-10.7333 14.7622 79.3087
-12.6622 14.9649 36.4562
-12.6622 14.9649 41.8127
-12.6622 14.9649 47.1693
-12.6622 14.9649 52.5259
-12.6622 14.9649 57.8824
-12.6622 14.9649 63.2390
-12.6622 14.9649 68.5956
-12.6622 14.9649 73.9521
-12.6622 14.9649 79.3087
-14.5912 15.1676 36.4562
-14.5912 15.1676 41.8127
-14.5912 15.1676 47.1693
-14.5912 15.1676 52.5259
-14.5912 15.1676 57.8824
-14.5912 15.1676 63.2390
-14.5912 15.1676 68.5956
-14.5912 15.1676 73.9521
-14.5912 15.1676 79.3087
-16.5201 15.3704 36.4562
-16.5201 15.3704 41.8127
-16.5201 15.3704 47.1693
-16.5201 15.3704 52.5259
-16.5201 15.3704 57.8824
-16.5201 15.3704 63.2390
-16.5201 15.3704 68.5956
-16.5201 15.3704 73.9521
-16.5201 15.3704 79.3087
-18.4491 15.5731 36.4562
-18.4491 15.5731 41.8127
-18.4491 15.5731 47.1693
-18.4491 15.5731 52.5259
-18.4491 15.5731 57.8824
-18.4491 15.5731 63.2390
-18.4491 15.5731 68.5956
-18.4491 15.5731 73.9521
-18.4491 15.5731 79.3087
-18.4491 15.5731 36.4562
-18.4491 15.5731 41.8127
-18.4491 15.5731 47.1693
-18.4491 15.5731 52.5259
-18.4491 15.5731 57.8824
-18.4491 15.5731 63.2390
-18.4491 15.5731 68.5956
-18.4491 15.5731 73.9521
-18.4491 15.5731 79.3087
-18.6532 13.6316 36.4562
-18.6532 13.6316 41.8127
-18.6532 13.6316 47.1693
-18.6532 13.6316 52.5259
-18.6532 13.6316 57.8824
-18.6532 13.6316 63.2390
-18.6532 13.6316 68.5956
-18.6532 13.6316 73.9521
-18.6532 13.6316 79.3087
-18.8572 11.6901 36.4562
-18.8572 11.6901 41.8127
-18.8572 11.6901 47.1693
-18.8572 11.6901 52.5259
-18.8572 11.6901 57.8824
-18.8572 11.6901 63.2390
-18.8572 11.6901 68.5956
-18.8572 11.6901 73.9521
-18.8572 11.6901 79.3087
-19.0613 9.7487 36.4562
-19.0613 9.7487 41.8127
-19.0613 9.7487 47.1693
-19.0613 9.7487 52.5259
-19.0613 9.7487 57.8824
-19.0613 9.7487 63.2390
-19.0613 9.7487 68.5956
-19.0613 9.7487 73.9521
-19.0613 9.7487 79.3087
-19.2653 7.8072 36.4562
-19.2653 7.8072 41.8127
-19.2653 7.8072 47.1693
-19.2653 7.8072 52.5259
-19.2653 7.8072 57.8824
-19.2653 7.8072 63.2390
-19.2653 7.8072 68.5956
-19.2653 7.8072 73.9521
-19.2653 7.8072 79.3087
-19.4694 5.8657 36.4562
-19.4694 5.8657 41.8127
-19.4694 5.8657 47.1693
-19.4694 5.8657 52.5259
-19.4694 5.8657 57.8824
-19.4694 5.8657 63.2390
-19.4694 5.8657 68.5956
-19.4694 5.8657 73.9521
-19.4694 5.8657 79.3087
-19.6734 3.9242 36.4562
-19.6734 3.9242 41.8127
-19.6734 3.9242 47.1693
-19.6734 3.9242 52.5259
-19.6734 3.9242 57.8824
-19.6734 3.9242 63.2390
-19.6734 3.9242 68.5956
-19.6734 3.9242 73.9521
-19.6734 3.9242 79.3087
-19.8775 1.9827 36.4562
-19.8775 1.9827 41.8127
-19.8775 1.9827 47.1693
-19.8775 1.9827 52.5259
-19.8775 1.9827 57.8824
-19.8775 1.9827 63.2390
-19.8775 1.9827 68.5956
-19.8775 1.9827 73.9521
-19.8775 1.9827 79.3087
-20.0816 0.0412 36.4562
-20.0816 0.0412 41.8127
-20.0816 0.0412 47.1693
-20.0816 0.0412 52.5259
-20.0816 0.0412 57.8824
-20.0816 0.0412 63.2390
-20.0816 0.0412 68.5956
-20.0816 0.0412 73.9521
-20.0816 0.0412 79.3087
-20.2856 -1.9003 36.4562
-20.2856 -1.9003 41.8127
-20.2856 -1.9003 47.1693
-20.2856 -1.9003 52.5259
-20.2856 -1.9003 57.8824
-20.2856 -1.9003 63.2390
-20.2856 -1.9003 68.5956
-20.2856 -1.9003 73.9521
-20.2856 -1.9003 79.3087
-20.4897 -3.8418 36.4562
-20.4897 -3.8418 41.8127
-20.4897 -3.8418 47.1693
-20.4897 -3.8418 52.5259
-20.4897 -3.8418 57.8824
-20.4897 -3.8418 63.2390
-20.4897 -3.8418 68.5956
-20.4897 -3.8418 73.9521
-20.4897 -3.8418 79.3087
-20.6937 -5.7832 36.4562
-20.6937 -5.7832 41.8127
-20.6937 -5.7832 47.1693
-20.6937 -5.7832 52.5259
-20.6937 -5.7832 57.8824
-20.6937 -5.7832 63.2390
-20.6937 -5.7832 68.5956
-20.6937 -5.7832 73.9521
-20.6937 -5.7832 79.3087
-20.8978 -7.7247 36.4562
-20.8978 -7.7247 41.8127
-20.8978 -7.7247 47.1693
-20.8978 -7.7247 52.5259
-20.8978 -7.7247 57.8824
-20.8978 -7.7247 63.2390
-20.8978 -7.7247 68.5956
-20.8978 -7.7247 73.9521
-20.8978 -7.7247 79.3087
-21.1019 -9.6662 36.4562
-21.1019 -9.6662 41.8127
-21.1019 -9.6662 47.1693
-21.1019 -9.6662 52.5259
-21.1019 -9.6662 57.8824
-21.1019 -9.6662 63.2390
-21.1019 -9.6662 68.5956
-21.1019 -9.6662 73.9521
-21.1019 -9.6662 79.3087
-21.3059 -11.6077 36.4562
-21.3059 -11.6077 41.8127
-21.3059 -11.6077 47.1693
-21.3059 -11.6077 52.5259
-21.3059 -11.6077 57.8824
-21.3059 -11.6077 63.2390
-21.3059 -11.6077 68.5956
-21.3059 -11.6077 73.9521
-21.3059 -11.6077 79.3087
-21.5100 -13.5492 36.4562
-21.5100 -13.5492 41.8127
-21.5100 -13.5492 47.1693
-21.5100 -13.5492 52.5259
-21.5100 -13.5492 57.8824
-21.5100 -13.5492 63.2390
-21.5100 -13.5492 68.5956
-21.5100 -13.5492 73.9521
-21.5100 -13.5492 79.3087
-21.5100 -13.5492 36.4562
-21.5100 -13.5492 41.8127
-21.5100 -13.5492 47.1693
-21.5100 -13.5492 52.5259
-21.5100 -13.5492 57.8824
-21.5100 -13.5492 63.2390
-21.5100 -13.5492 68.5956
-21.5100 -13.5492 73.9521
-21.5100 -13.5492 79.3087
-19.5810 -13.7519 36.4562
-19.5810 -13.7519 41.8127
-19.5810 -13.7519 47.1693
-19.5810 -13.7519 52.5259
-19.5810 -13.7519 57.8824
-19.5810 -13.7519 63.2390
-19.5810 -13.7519 68.5956
-19.5810 -13.7519 73.9521
-19.5810 -13.7519 79.3087
-17.6521 -13.9547 36.4562
-17.6521 -13.9547 41.8127
-17.6521 -13.9547 47.1693
-17.6521 -13.9547 52.5259
-17.6521 -13.9547 57.8824
-17.6521 -13.9547 63.2390
-17.6521 -13.9547 68.5956
-17.6521 -13.9547 73.9521
-17.6521 -13.9547 79.3087
-15.7231 -14.1574 36.4562
-15.7231 -14.1574 41.8127
-15.7231 -14.1574 47.1693
-15.7231 -14.1574 52.5259
-15.7231 -14.1574 57.8824
-15.7231 -14.1574 63.2390
-15.7231 -14.1574 68.5956
-15.7231 -14.1574 73.9521
-15.7231 -14.1574 79.3087
-13.7942 -14.3601 36.4562
-13.7942 -14.3601 41.8127
-13.7942 -14.3601 47.1693
-13.7942 -14.3601 52.5259
-13.7942 -14.3601 57.8824
-13.7942 -14.3601 63.2390
-13.7942 -14.3601 68.5956
-13.7942 -14.3601 73.9521
-13.7942 -14.3601 79.3087
-11.8652 -14.5629 36.4562
-11.8652 -14.5629 41.8127
-11.8652 -14.5629 47.1693
-11.8652 -14.5629 52.5259
-11.8652 -14.5629 57.8824
-11.8652 -14.5629 63.2390
-11.8652 -14.5629 68.5956
-11.8652 -14.5629 73.9521
-11.8652 -14.5629 79.3087
-9.9363 -14.7656 36.4562
-9.9363 -14.7656 41.8127
-9.9363 -14.7656 47.1693
-9.9363 -14.7656 52.5259
-9.9363 -14.7656 57.8824
-9.9363 -14.7656 63.2390
-9.9363 -14.7656 68.5956
-9.9363 -14.7656 73.9521
-9.9363 -14.7656 79.3087
-8.0073 -14.9684 36.4562
-8.0073 -14.9684 41.8127
-8.0073 -14.9684 47.1693
-8.0073 -14.9684 52.5259
-8.0073 -14.9684 57.8824
-8.0073 -14.9684 63.2390
-8.0073 -14.9684 68.5956
-8.0073 -14.9684 73.9521
-8.0073 -14.9684 79.3087
-6.0784 -15.1711 36.4562
-6.0784 -15.1711 41.8127
-6.0784 -15.1711 47.1693
-6.0784 -15.1711 52.5259
-6.0784 -15.1711 57.8824
-6.0784 -15.1711 63.2390
-6.0784 -15.1711 68.5956
-6.0784 -15.1711 73.9521
-6.0784 -15.1711 79.3087
-4.1494 -15.3739 36.4562
-4.1494 -15.3739 41.8127
-4.1494 -15.3739 47.1693
-4.1494 -15.3739 52.5259
-4.1494 -15.3739 57.8824
-4.1494 -15.3739 63.2390
-4.1494 -15.3739 68.5956
-4.1494 -15.3739 73.9521
-4.1494 -15.3739 79.3087
-2.2205 -15.5766 36.4562
-2.2205 -15.5766 41.8127
-2.2205 -15.5766 47.1693
-2.2205 -15.5766 52.5259
-2.2205 -15.5766 57.8824
-2.2205 -15.5766 63.2390
-2.2205 -15.5766 68.5956
-2.2205 -15.5766 73.9521
-2.2205 -15.5766 79.3087
-0.2915 -15.7793 36.4562
-0.2915 -15.7793 41.8127
-0.2915 -15.7793 47.1693
-0.2915 -15.7793 52.5259
-0.2915 -15.7793 57.8824
-0.2915 -15.7793 63.2390
-0.2915 -15.7793 68.5956
-0.2915 -15.7793 73.9521
-0.2915 -15.7793 79.3087
1.6374 -15.9821 36.4562
1.6374 -15.9821 41.8127
1.6374 -15.9821 47.1693
1.6374 -15.9821 52.5259
1.6374 -15.9821 57.8824
1.6374 -15.9821 63.2390
1.6374 -15.9821 68.5956
1.6374 -15.9821 73.9521
1.6374 -15.9821 79.3087
3.5664 -16.1848 36.4562
3.5664 -16.1848 41.8127
3.5664 -16.1848 47.1693
3.5664 -16.1848 52.5259
3.5664 -16.1848 57.8824
3.5664 -16.1848 63.2390
3.5664 -16.1848 68.5956
3.5664 -16.1848 73.9521
3.5664 -16.1848 79.3087
5.4953 -16.3876 36.4562
5.4953 -16.3876 41.8127
5.4953 -16.3876 47.1693
5.4953 -16.3876 52.5259
5.4953 -16.3876 57.8824
5.4953 -16.3876 63.2390
5.4953 -16.3876 68.5956
5.4953 -16.3876 73.9521
5.4953 -16.3876 79.3087
7.4243 -16.5903 36.4562
7.4243 -16.5903 41.8127
7.4243 -16.5903 47.1693
7.4243 -16.5903 52.5259
7.4243 -16.5903 57.8824
7.4243 -16.5903 63.2390
7.4243 -16.5903 68.5956
7.4243 -16.5903 73.9521
7.4243 -16.5903 79.3087
9.3532 -16.7930 36.4562
9.3532 -16.7930 41.8127
9.3532 -16.7930 47.1693
9.3532 -16.7930 52.5259
9.3532 -16.7930 57.8824
9.3532 -16.7930 63.2390
9.3532 -16.7930 68.5956
9.3532 -16.7930 73.9521
9.3532 -16.7930 79.3087
11.2822 -16.9958 36.4562
11.2822 -16.9958 41.8127
11.2822 -16.9958 47.1693
11.2822 -16.9958 52.5259
11.2822 -16.9958 57.8824
11.2822 -16.9958 63.2390
11.2822 -16.9958 68.5956
11.2822 -16.9958 73.9521
11.2822 -16.9958 79.3087
13.2111 -17.1985 36.4562
13.2111 -17.1985 41.8127
13.2111 -17.1985 47.1693
13.2111 -17.1985 52.5259
13.2111 -17.1985 57.8824
13.2111 -17.1985 63.2390
13.2111 -17.1985 68.5956
13.2111 -17.1985 73.9521
13.2111 -17.1985 79.3087
15.1401 -17.4013 36.4562
15.1401 -17.4013 41.8127
15.1401 -17.4013 47.1693
15.1401 -17.4013 52.5259
15.1401 -17.4013 57.8824
15.1401 -17.4013 63.2390
15.1401 -17.4013 68.5956
15.1401 -17.4013 73.9521
15.1401 -17.4013 79.3087
17.0690 -17.6040 36.4562
17.0690 -17.6040 41.8127
17.0690 -17.6040 47.1693
17.0690 -17.6040 52.5259
17.0690 -17.6040 57.8824
17.0690 -17.6040 63.2390
17.0690 -17.6040 68.5956
17.0690 -17.6040 73.9521
17.0690 -17.6040 79.3087
18.9980 -17.8067 36.4562
18.9980 -17.8067 41.8127
18.9980 -17.8067 47.1693
18.9980 -17.8067 52.5259
18.9980 -17.8067 57.8824
18.9980 -17.8067 63.2390
18.9980 -17.8067 68.5956
18.9980 -17.8067 73.9521
18.9980 -17.8067 79.3087
20.9269 -18.0095 36.4562
20.9269 -18.0095 41.8127
20.9269 -18.0095 47.1693
20.9269 -18.0095 52.5259
20.9269 -18.0095 57.8824
20.9269 -18.0095 63.2390
20.9269 -18.0095 68.5956
20.9269 -18.0095 73.9521
20.9269 -18.0095 79.3087
22.8559 -18.2122 36.4562
22.8559 -18.2122 41.8127
22.8559 -18.2122 47.1693
22.8559 -18.2122 52.5259
22.8559 -18.2122 57.8824
22.8559 -18.2122 63.2390
22.8559 -18.2122 68.5956
22.8559 -18.2122 73.9521
22.8559 -18.2122 79.3087
22.8559 -18.2122 36.4562
22.8559 -18.2122 41.8127
22.8559 -18.2122 47.1693
22.8559 -18.2122 52.5259
22.8559 -18.2122 57.8824
22.8559 -18.2122 63.2390
22.8559 -18.2122 68.5956
22.8559 -18.2122 73.9521
22.8559 -18.2122 79.3087
23.0599 -16.2707 36.4562
23.0599 -16.2707 41.8127
23.0599 -16.2707 47.1693
23.0599 -16.2707 52.5259
23.0599 -16.2707 57.8824
23.0599 -16.2707 63.2390
23.0599 -16.2707 68.5956
23.0599 -16.2707 73.9521
23.0599 -16.2707 79.3087
23.2640 -14.3293 36.4562
23.2640 -14.3293 41.8127
23.2640 -14.3293 47.1693
23.2640 -14.3293 52.5259
23.2640 -14.3293 57.8824
23.2640 -14.3293 63.2390
23.2640 -14.3293 68.5956
23.2640 -14.3293 73.9521
23.2640 -14.3293 79.3087
23.4680 -12.3878 36.4562
23.4680 -12.3878 41.8127
23.4680 -12.3878 47.1693
23.4680 -12.3878 52.5259
23.4680 -12.3878 57.8824
23.4680 -12.3878 63.2390
23.4680 -12.3878 68.5956
23.4680 -12.3878 73.9521
23.4680 -12.3878 79.3087
23.6721 -10.4463 36.4562
23.6721 -10.4463 41.8127
23.6721 -10.4463 47.1693
23.6721 -10.4463 52.5259
23.6721 -10.4463 57.8824
23.6721 -10.4463 63.2390
23.6721 -10.4463 68.5956
23.6721 -10.4463 73.9521
23.6721 -10.4463 79.3087
23.8762 -8.5048 36.4562
23.8762 -8.5048 41.8127
23.8762 -8.5048 47.1693
23.8762 -8.5048 52.5259
23.8762 -8.5048 57.8824
23.8762 -8.5048 63.2390
23.8762 -8.5048 68.5956
23.8762 -8.5048 73.9521
23.8762 -8.5048 79.3087
24.0802 -6.5633 36.4562
24.0802 -6.5633 41.8127
24.0802 -6.5633 47.1693
24.0802 -6.5633 52.5259
24.0802 -6.5633 57.8824
24.0802 -6.5633 63.2390
24.0802 -6.5633 68.5956
24.0802 -6.5633 73.9521
24.0802 -6.5633 79.3087
24.2843 -4.6218 36.4562
24.2843 -4.6218 41.8127
24.2843 -4.6218 47.1693
24.2843 -4.6218 52.5259
24.2843 -4.6218 57.8824
24.2843 -4.6218 63.2390
24.2843 -4.6218 68.5956
24.2843 -4.6218 73.9521
24.2843 -4.6218 79.3087
24.4883 -2.6803 36.4562
24.4883 -2.6803 41.8127
24.4883 -2.6803 47.1693
24.4883 -2.6803 52.5259
24.4883 -2.6803 57.8824
24.4883 -2.6803 63.2390
24.4883 -2.6803 68.5956
24.4883 -2.6803 73.9521
24.4883 -2.6803 79.3087
24.6924 -0.7388 36.4562
24.6924 -0.7388 41.8127
24.6924 -0.7388 47.1693
24.6924 -0.7388 52.5259
24.6924 -0.7388 57.8824
24.6924 -0.7388 63.2390
24.6924 -0.7388 68.5956
24.6924 -0.7388 73.9521
24.6924 -0.7388 79.3087
24.8964 1.2026 36.4562
24.8964 1.2026 41.8127
24.8964 1.2026 47.1693
24.8964 1.2026 52.5259
24.8964 1.2026 57.8824
24.8964 1.2026 63.2390
24.8964 1.2026 68.5956
24.8964 1.2026 73.9521
24.8964 1.2026 79.3087
25.1005 3.1441 36.4562
25.1005 3.1441 41.8127
25.1005 3.1441 47.1693
25.1005 3.1441 52.5259
25.1005 3.1441 57.8824
25.1005 3.1441 63.2390
25.1005 3.1441 68.5956
25.1005 3.1441 73.9521
25.1005 3.1441 79.3087
25.3046 5.0856 36.4562
25.3046 5.0856 41.8127
25.3046 5.0856 47.1693
25.3046 5.0856 52.5259
25.3046 5.0856 57.8824
25.3046 5.0856 63.2390
25.3046 5.0856 68.5956
25.3046 5.0856 73.9521
25.3046 5.0856 79.3087
25.5086 7.0271 36.4562
25.5086 7.0271 41.8127
25.5086 7.0271 47.1693
25.5086 7.0271 52.5259
25.5086 7.0271 57.8824
25.5086 7.0271 63.2390
25.5086 7.0271 68.5956
25.5086 7.0271 73.9521
25.5086 7.0271 79.3087
25.7127 8.9686 36.4562
25.7127 8.9686 41.8127
25.7127 8.9686 47.1693
25.7127 8.9686 52.5259
25.7127 8.9686 57.8824
25.7127 8.9686 63.2390
25.7127 8.9686 68.5956
25.7127 8.9686 73.9521
25.7127 8.9686 79.3087
25.9167 10.9101 36.4562
25.9167 10.9101 41.8127
25.9167 10.9101 47.1693
25.9167 10.9101 52.5259
25.9167 10.9101 57.8824
25.9167 10.9101 63.2390
25.9167 10.9101 68.5956
25.9167 10.9101 73.9521
25.9167 10.9101 79.3087
